<svg width="60" height="60" viewBox="0 0 60 60" fill="none" xmlns="http://www.w3.org/2000/svg">
<rect width="60" height="60" rx="20" fill="#162E4E"/>
<path d="M21.8438 25.0625L26.2188 27.7813L21.8438 30.5M28.4063 30.5H32.7813M19.6563 40.4688H39.3438C40.214 40.4688 41.0486 40.1823 41.6639 39.6724C42.2793 39.1626 42.625 38.4711 42.625 37.75V23.25C42.625 22.5289 42.2793 21.8374 41.6639 21.3276C41.0486 20.8177 40.214 20.5312 39.3438 20.5312H19.6563C18.786 20.5312 17.9514 20.8177 17.3361 21.3276C16.7207 21.8374 16.375 22.5289 16.375 23.25V37.75C16.375 38.4711 16.7207 39.1626 17.3361 39.6724C17.9514 40.1823 18.786 40.4688 19.6563 40.4688Z" stroke="white" stroke-width="1.5" stroke-linecap="round" stroke-linejoin="round"/>
<g clip-path="url(#clip0_1102_17)">
<path d="M49.0842 38.8855L49.793 34.6261C49.891 34.0374 49.7511 33.434 49.4041 32.9485C49.0572 32.463 48.5316 32.1352 47.9429 32.0372L43.6835 31.3284C43.0946 31.2304 42.4905 31.3701 42.0059 31.7173L30.9821 39.5955C30.1778 40.1703 29.8297 41.2083 30.2286 42.113C31.2318 44.3902 32.6938 46.436 34.5234 48.1225C35.2502 48.7929 36.3449 48.7997 37.1492 48.225L48.1718 40.3475C48.4125 40.1758 48.617 39.9582 48.7736 39.7073C48.9301 39.4565 49.0357 39.1772 49.0842 38.8855Z" fill="white" stroke="white" stroke-width="1.5" stroke-linecap="round" stroke-linejoin="round"/>
<path d="M46.7106 34.8734L46.7093 34.8813L46.7014 34.88L46.7027 34.8721L46.7106 34.8734Z" stroke="#162E4E" stroke-width="1.5" stroke-linecap="round" stroke-linejoin="round"/>
</g>
<defs>
<clipPath id="clip0_1102_17">
<rect width="24" height="24" fill="white" transform="translate(53.6142 29.9398) rotate(99.4482)"/>
</clipPath>
</defs>
</svg>
